<?xml version="1.0" encoding="utf-8"?>
<!-- Generator: Adobe Illustrator 24.3.0, SVG Export Plug-In . SVG Version: 6.00 Build 0)  -->
<svg version="1.1" id="Capa_1" xmlns="http://www.w3.org/2000/svg" xmlns:xlink="http://www.w3.org/1999/xlink" x="0px" y="0px"
	 viewBox="0 0 690.2 618.3" style="enable-background:new 0 0 690.2 618.3;" xml:space="preserve">
<style type="text/css">
	.st0{fill:#FFFFFF;}
</style>
<g>
	<polygon class="st0" points="503.2,309.1 477.2,230 360.4,176.7 343.3,188.3 356.3,255.5 488.9,322.7 489.8,311.9 485.7,311 
		485.3,315.5 360.8,251.9 347.8,190.1 359,183.4 372.5,245.2 	"/>
	<polygon class="st0" points="223.3,303.8 356.3,334.7 376,303.8 376,289.5 247.1,263.1 225.1,288.6 355.4,316.8 355.4,328.6 
		228.3,301.2 226,298.9 223.3,298.9 	"/>
	<polygon class="st0" points="277.5,218.8 182.1,268.9 149.9,261.3 149.9,249.7 236.8,205.8 275.3,205.8 181.1,254.5 152.2,250 
		152.1,258.2 181.6,263.9 272.3,217.4 	"/>
	<polygon class="st0" points="144.2,401.7 174.4,376.2 202.9,301.2 190.5,295.2 161.3,312.3 131.5,397.1 136,398.4 164.5,314.4 
		190.1,299.9 194.4,302.9 169.6,319 141.3,400.5 	"/>
	<path class="st0" d="M275.5,416.4c0,0-190.9,75.7-197.1,79.4c-6.2,3.7-8.3,6.6,2.1,11.6c10.4,5,71.1,24.8,122.5,24.9
		c3.7,0,14.7,13.7,20.4,14.1c0,3.7-42.9-1.2-99.3-15.8c-56.4-14.5-60.2-29.5-60.6-31.5c-0.4-2.1,196.7-82.7,200.4-82.7
		C267.6,416.4,275.5,416.4,275.5,416.4z"/>
	<path class="st0" d="M294.2,413.5c0,0-169,69.7-177.8,73.3s-7.4,7.7,1.4,9.6s91.2,17.4,91.2,17.4s-67.8-19.8-71.9-21.2
		c-4.1-1.4,2.2-4.7,11.9-8.8c9.6-4.1,143.9-65.9,146.9-67.4S297,412.4,294.2,413.5z"/>
	<path class="st0" d="M489.6,364.2c0,0-169.5,18.5-181.1,20.4s-20.1,6.3-26.2,14.3s-3.6,10.5-5.2,10.5c-1.7,0-3.6-14.8,1.7-22.6
		c6.3-9.4,14.6-12.4,14.6-12.4l-0.3-25.9l12.1,1.7l0.3,22.3L489.6,364.2z"/>
	<path class="st0" d="M514.2,431.5c1.1-0.3,10.5-11.9,13.8-39.1s17.6-263.8,18.7-275.6c1.1-11.9-4.1-22.3-22.9-17.1
		s-222.9,71.2-227.7,72.5c-8,2.2-6.2,12.9-6.3,25.6c-0.1,7.2,0,67.1,0,67.1s13.2,5.7,14.3,5.7s1.1-74.1,1.4-78s1.1-8.5,16-13
		c14.9-4.4,187.7-57.1,195.4-59.5c7.7-2.5,9.9-0.8,9.6,9.9s-14.1,222.4-14.1,226.9c0,4.4-9.9,13.2-15.2,17.4
		c-5.2,4.1-5.8,18.5-3.3,22.6s10.8,0.3,17.4,8S514.2,431.5,514.2,431.5z"/>
	<circle class="st0" cx="493.7" cy="420" r="15.3"/>
	<path class="st0" d="M471.2,429c-1.9-9.9,2.2-20.9,3.9-21.8c0,0-250.8,118.8-254.7,120.7s-12.1,5.5,3,11.6s27,1.7,54.6-9.9
		s196.5-82.4,202.3-84.6C490.2,441.1,473.2,439.3,471.2,429z M256.8,530.9h-7.9V523h7.9V530.9z M269.4,525.5c-2.8,0-5.1-2.3-5.1-5.1
		s2.3-5.1,5.1-5.1s5.1,2.3,5.1,5.1S272.2,525.5,269.4,525.5z M454.9,443l-18.5,8.3c-2.1,0.9-4.5,0-5.4-2.1s0-4.5,2.1-5.4l18.5-8.3
		c2.1-0.9,4.5,0,5.4,2.1C457.8,439.7,456.9,442.1,454.9,443z"/>
</g>
</svg>
