<?xml version="1.0" encoding="utf-8"?>
<!-- Generator: Adobe Illustrator 24.3.0, SVG Export Plug-In . SVG Version: 6.00 Build 0)  -->
<svg version="1.1" id="Capa_1" xmlns="http://www.w3.org/2000/svg" xmlns:xlink="http://www.w3.org/1999/xlink" x="0px" y="0px"
	 viewBox="0 0 1920 618.3" style="enable-background:new 0 0 1920 618.3;" xml:space="preserve">
<style type="text/css">
	.st0{fill:#FFFFFF;}
</style>
<g>
	<polygon class="st0" points="676.9,195.9 661.3,416.4 689.8,416.4 697.6,275.7 757.8,416.4 771.3,416.4 829.7,275.7 840.4,416.4 
		866.1,416.4 852.5,195.9 831.5,195.9 766,361.6 698.3,195.9 	"/>
	<polygon class="st0" points="1488.6,195.9 1472.9,416.4 1501.4,416.4 1509.3,275.7 1569.5,416.4 1583,416.4 1641.4,275.7 
		1652.1,416.4 1677.8,416.4 1664.2,195.9 1643.2,195.9 1577.7,361.6 1510,195.9 	"/>
	<path class="st0" d="M963.7,395.4c22.8,0,38.8-16.4,38.8-16.4v17.8c0,0-8.9,23.2-42,23.2s-69.1-37-69.1-76.6S911,255,955.5,255
		s54.9,47.4,54.9,54.1s-1.1,21.1-1.1,21.1l-13.2,13.2h-76.2C919.9,369,940.9,395.4,963.7,395.4z M923.1,319.5h59.8c0,0,0-4.6,0-8.2
		s-6.4-33.1-26-33.1C937.3,278.2,923.1,304.9,923.1,319.5z"/>
	<path class="st0" d="M1039.9,416.4V195.9c0,0,49.2,0,62.3,0c13.2,0,88,14.6,88,110.3s-73.7,110.3-92.6,110.3
		C1078.8,416.4,1039.9,416.4,1039.9,416.4z M1097.6,387.9c20.3,0,62.7-16.7,62.7-83s-45.6-83-63.1-83s-27.1,0-27.1,0v166
		C1070.2,387.9,1077.3,387.9,1097.6,387.9z"/>
	<polygon class="st0" points="1220.9,416.4 1220.9,195.9 1251.5,195.9 1251.5,291.7 1337.4,291.7 1337.4,195.9 1368.4,195.9 
		1368.4,416.4 1338.1,416.4 1338.1,315.2 1251.2,315.2 1251.2,416.4 	"/>
	<polygon class="st0" points="1715,416.4 1715,195.5 1809.4,195.5 1809.4,220.5 1741.7,220.5 1741.7,292.8 1798,292.8 1798,318.8 
		1741,318.8 1741,387.6 1820.4,387.6 1820.4,416.4 	"/>
	<path class="st0" d="M1409.7,259h26v157.5h-26V259z M1439.9,212.6c0-9.5-7.7-17.2-17.2-17.2s-17.2,7.7-17.2,17.2
		s7.7,17.2,17.2,17.2S1439.9,222.1,1439.9,212.6z"/>
	<polygon class="st0" points="550.8,309.1 524.9,230 408,176.7 391,188.3 404,255.5 536.5,322.7 537.4,311.9 533.4,311 532.9,315.5 
		408.4,251.9 395.4,190.1 406.6,183.4 420.1,245.2 	"/>
	<polygon class="st0" points="271,303.8 404,334.7 423.7,303.8 423.7,289.5 294.7,263.1 272.8,288.6 403.1,316.8 403.1,328.6 
		275.9,301.2 273.6,298.9 271,298.9 	"/>
	<polygon class="st0" points="325.1,218.8 229.8,268.9 197.5,261.3 197.5,249.7 284.4,205.8 322.9,205.8 228.8,254.5 199.8,250 
		199.7,258.2 229.2,263.9 319.9,217.4 	"/>
	<polygon class="st0" points="191.8,401.7 222,376.2 250.6,301.2 238.1,295.2 208.9,312.3 179.2,397.1 183.6,398.4 212.1,314.4 
		237.8,299.9 242,302.9 217.3,319 188.9,400.5 	"/>
	<path class="st0" d="M323.1,416.4c0,0-190.9,75.7-197.1,79.4c-6.2,3.7-8.3,6.6,2.1,11.6c10.4,5,71.1,24.8,122.5,24.9
		c3.7,0,14.7,13.7,20.4,14.1c0,3.7-42.9-1.2-99.3-15.8c-56.4-14.5-60.2-29.5-60.6-31.5s196.7-82.7,200.4-82.7
		C315.2,416.4,323.1,416.4,323.1,416.4z"/>
	<path class="st0" d="M341.8,413.5c0,0-169,69.7-177.8,73.3s-7.4,7.7,1.4,9.6c8.8,1.9,91.2,17.4,91.2,17.4s-67.8-19.8-71.9-21.2
		c-4.1-1.4,2.2-4.7,11.9-8.8c9.6-4.1,143.9-65.9,146.9-67.4C346.5,414.9,344.6,412.4,341.8,413.5z"/>
	<path class="st0" d="M537.3,364.2c0,0-169.5,18.5-181.1,20.4s-20.1,6.3-26.2,14.3s-3.6,10.5-5.2,10.5c-1.7,0-3.6-14.8,1.7-22.6
		c6.3-9.4,14.6-12.4,14.6-12.4l-0.3-25.9l12.1,1.7l0.3,22.3L537.3,364.2z"/>
	<path class="st0" d="M561.8,431.5c1.1-0.3,10.5-11.9,13.8-39.1c3.3-27.3,17.6-263.8,18.7-275.6c1.1-11.9-4.1-22.3-22.9-17.1
		s-222.9,71.2-227.7,72.5c-8,2.2-6.2,12.9-6.3,25.6c-0.1,7.2,0,67.1,0,67.1s13.2,5.7,14.3,5.7c1.1,0,1.1-74.1,1.4-78s1.1-8.5,16-13
		c14.9-4.4,187.7-57.1,195.4-59.5s9.9-0.8,9.6,9.9c-0.3,10.8-14.1,222.4-14.1,226.9c0,4.4-9.9,13.2-15.2,17.4
		c-5.2,4.1-5.8,18.5-3.3,22.6s10.8,0.3,17.4,8C565.7,412.4,561.8,431.5,561.8,431.5z"/>
	<circle class="st0" cx="541.3" cy="420" r="15.3"/>
	<path class="st0" d="M518.8,429c-1.9-9.9,2.2-20.9,3.9-21.8c0,0-250.8,118.8-254.7,120.7s-12.1,5.5,3,11.6s27,1.7,54.6-9.9
		s196.5-82.4,202.3-84.6C537.8,441.1,520.8,439.3,518.8,429z M304.4,530.9h-7.9V523h7.9V530.9z M317,525.5c-2.8,0-5.1-2.3-5.1-5.1
		s2.3-5.1,5.1-5.1s5.1,2.3,5.1,5.1S319.8,525.5,317,525.5z M502.5,443l-18.5,8.3c-2.1,0.9-4.5,0-5.4-2.1s0-4.5,2.1-5.4l18.5-8.3
		c2.1-0.9,4.5,0,5.4,2.1S504.6,442.1,502.5,443z"/>
</g>
</svg>
